# xmcd
#
# Track frame offsets:
# 150
# 15834
# 38522
# 53685
# 70842
# 86720
# 104754
# 130002
# 142899
#
# Disc length: 2159 seconds
#
#
# Revision: 0
# Processed by: cddbd v1.5.2PL0 Copyright (c) Steve Scherf et al.
# Submitted via: FreeRIP 2.951 
#
DISCID=6a086d09
DTITLE=Johnny Winter - White, Hot and Blue
DYEAR=1978
DGENRE=Blues
TTITLE0=Walkin´ by myself
TTITLE1=Slidin´ in
TTITLE2=Divin´ Duck
TTITLE3=One Step at a Time
TTITLE4=Nickel Blues
TTITLE5=E-Z Rider
TTITLE6=Last Night
TTITLE7=Messin´ with the Kid
TTITLE8=Honest I do
EXTD=
EXTT0=
EXTT1=
EXTT2=
EXTT3=
EXTT4=
EXTT5=
EXTT6=
EXTT7=
EXTT8=
PLAYORDER=
